<?xml version="1.0" encoding="utf-8"?>
<!-- Generator: Adobe Illustrator 25.4.1, SVG Export Plug-In . SVG Version: 6.00 Build 0)  -->
<svg version="1.1" id="Capa_1" xmlns="http://www.w3.org/2000/svg" xmlns:xlink="http://www.w3.org/1999/xlink" x="0px" y="0px"
	 viewBox="0 0 500 500" style="enable-background:new 0 0 500 500;" xml:space="preserve">
<style type="text/css">
	.st0{clip-path:url(#SVGID_00000004534692030151529850000011732805782159637407_);}
	.st1{clip-path:url(#SVGID_00000085226602562780903440000016115780400697399426_);}
	.st2{fill:#FF66C4;}
	.st3{fill:#FFE8E1;fill-opacity:0.4;}
	.st4{fill:#FFF6F4;}
	.st5{clip-path:url(#SVGID_00000060002240257701770570000011935804088015101574_);}
	.st6{fill:#FFB4E2;}
	.st7{clip-path:url(#SVGID_00000116218422669677574600000015924913691009912501_);}
</style>
<g>
	<defs>
		<rect id="SVGID_1_" x="98.4" y="92.9" width="303.1" height="303.1"/>
	</defs>
	<clipPath id="SVGID_00000029745289315972465080000014154466652524608141_">
		<use xlink:href="#SVGID_1_"  style="overflow:visible;"/>
	</clipPath>
	<g style="clip-path:url(#SVGID_00000029745289315972465080000014154466652524608141_);">
		<g>
			<defs>
				<path id="SVGID_00000029020092553215401190000016564198747598369183_" d="M250,92.9c-83.7,0-151.5,67.8-151.5,151.5
					S166.3,396,250,396s151.5-67.8,151.5-151.5S333.7,92.9,250,92.9z"/>
			</defs>
			<clipPath id="SVGID_00000165941659183807465640000018405387480934487734_">
				<use xlink:href="#SVGID_00000029020092553215401190000016564198747598369183_"  style="overflow:visible;"/>
			</clipPath>
			<g style="clip-path:url(#SVGID_00000165941659183807465640000018405387480934487734_);">
				<path class="st2" d="M98.4,92.9h303.1V396H98.4V92.9z"/>
			</g>
		</g>
	</g>
</g>
<g>
	<g transform="translate(114.010749, 183.250547)">
		<g>
			<path class="st3" d="M137.8,7.4c-1.6,4-5.3,6.2-9,6.9c-4.6,0.9-6.9-2.3-7.8-7.3c-0.9-4.6-0.4-11,0.1-16.4
				c1.1-10.5,3.4-15,5.8-15.4c1.7-0.4,3.1,0.6,4.7,0.3c5.1-1,7.8-8.2,6.5-16c-1.3-6.7-6.3-11.1-14.8-9.5
				C110-47.3,95.9-35.4,83.9,1.3c-0.7,2.2-1.5,4.2-2.2,6.2C76.5,4.6,73.2,0,72-6.2c-1.7-8.8,3.3-12.2,8.1-12.6
				c1.9-0.1,2.6-1.6,2.1-3.4c-1.1-5.7-6.3-10.6-15.5-8.8C56.4-29,48.5-20.2,51-7.5c2.3,12.1,12.1,21,25.8,24.9
				c-4.2,7.4-9.9,12.6-17.4,14c-6.7,1.3-12.6-1.3-13.6-6.7c-0.2-0.8-1.1-1.3-2.1-1.1C34,25.5,29.5,36.6,31.4,46.5
				C33.4,56.6,42,65.6,58.6,62.4c13.1-2.5,22.8-18,28.4-34c1-2.8,1.9-5.9,2.8-8.7c4.8,0.2,9.9,0,15.2-0.8c0.1,3.9,0.4,7.3,1,10.4
				c1.9,9.9,6.6,17.4,15.2,15.8c16.3-3.2,20-28.3,22.6-35.7C144.7,6.8,139.2,4.1,137.8,7.4z M105.2,10.3c-4.7,0.6-8.9,0.8-12.6,0.4
				c2.8-8.7,5.7-17.2,9.3-24.4c2.7-4.8,4-5.9,5.6-6.2c0.8-0.2,1.5,0.2,1.8,1.4C110.3-13.6,106.8-7.6,105.2,10.3z"/>
		</g>
	</g>
</g>
<g>
	<g transform="translate(191.585598, 168.250685)">
		<g>
			<path class="st3" d="M108.1,13.1c-1.7,4.1-3.5,7.1-7.2,7.8c-5.4,1.1-8-1.1-8.7-4.5C90.8,8.9,95,2.8,93.7-4.1
				c-1.3-6.5-14.4-12-25.8-9.8c-6.5,1.3-9.6,8-8.7,13c0.8,4.4,2.7,5.6,5.3,6c-1,6-2.7,13.6-4.3,17.3c-1.1,2.6,5.1,5.4,6,2
				C67.4,20,69.8,11,71.1,5.7c5.2,0.9,7.4,3.6,7.6,4.8c1.1,5.8-5.2,18.8-3,30.1c1.2,6.2,5.8,12.1,15.8,10.1
				c16.3-3.2,20-28.2,22.6-35.7C115,12.5,109.4,9.8,108.1,13.1z"/>
		</g>
	</g>
</g>
<g>
	<g transform="translate(227.46623, 161.312811)">
		<g>
			<path class="st3" d="M87.5-16.5c6.3-1.2,10.8-4.6,10.1-12.2c-0.8-7.6-6.3-9-12.4-7.8c-6.7,1.3-11.6,4.9-10,13.5
				C76.4-16.6,81.7-15.3,87.5-16.5z M86.7,51.7c15.6-3,18.8-28.3,21.4-35.5c0.8-2.4-4.6-5.1-6-1.9c-1.7,4.1-3.6,7-7.2,7.7
				c-3.3,0.6-5.8-1-6.6-5C87,10.4,90.9,1.3,89.5-6c-0.8-3.9-2.6-5.1-5.2-4.7C77.4-9.4,74.4,1.4,72.2,20c-0.7,6.2-0.6,12.9,0.5,18.6
				C74.3,47.2,78.6,53.2,86.7,51.7z"/>
		</g>
	</g>
</g>
<g>
	<g transform="translate(109.219828, 180.012172)">
		<g>
			<path class="st4" d="M136.2,6.3c-1.6,4-5.3,6.2-9,6.9c-4.6,0.9-6.9-2.3-7.8-7.3c-0.9-4.6-0.4-11,0.1-16.4
				c1.1-10.5,3.4-15,5.8-15.4c1.7-0.4,3.1,0.6,4.7,0.3c5.1-1,7.8-8.2,6.5-16c-1.3-6.7-6.3-11.1-14.8-9.5
				c-13.3,2.6-27.5,14.5-39.5,51.2c-0.7,2.2-1.5,4.2-2.2,6.2c-5.2-2.9-8.5-7.5-9.7-13.7c-1.7-8.8,3.3-12.2,8.1-12.6
				c1.9-0.1,2.6-1.6,2.1-3.4c-1.1-5.7-6.3-10.6-15.5-8.8c-10.3,2-18.1,10.8-15.7,23.5c2.3,12.1,12.1,21,25.8,24.9
				c-4.2,7.4-9.9,12.6-17.4,14c-6.7,1.3-12.6-1.3-13.6-6.7c-0.2-0.8-1.1-1.3-2.1-1.1c-9.7,1.9-14.2,12.9-12.3,22.9
				C31.8,55.5,40.4,64.5,57,61.3c13.1-2.5,22.8-18,28.4-34c1-2.8,1.9-5.9,2.8-8.7c4.8,0.2,9.9,0,15.2-0.8c0.1,3.9,0.4,7.3,1,10.4
				c1.9,9.9,6.6,17.4,15.2,15.8c16.3-3.2,20-28.2,22.6-35.7C143.1,5.7,137.6,3,136.2,6.3z M103.6,9.2C99,9.8,94.7,10,91,9.6
				c2.8-8.7,5.7-17.2,9.3-24.4c2.7-4.8,4-5.9,5.6-6.2c0.8-0.2,1.5,0.2,1.8,1.4C108.7-14.7,105.2-8.7,103.6,9.2z"/>
		</g>
	</g>
</g>
<g>
	<g transform="translate(186.794676, 165.01231)">
		<g>
			<path class="st4" d="M106.5,12c-1.7,4.1-3.5,7.1-7.2,7.8c-5.4,1.1-8-1.1-8.7-4.5c-1.5-7.5,2.8-13.6,1.4-20.5
				c-1.3-6.5-14.4-12-25.8-9.8c-6.5,1.3-9.6,8-8.7,13c0.8,4.4,2.7,5.6,5.3,6c-1,6-2.7,13.6-4.3,17.3c-1.1,2.6,5.1,5.4,6,2
				c1.2-4.4,3.6-13.4,4.8-18.6c5.2,0.9,7.4,3.6,7.6,4.8c1.1,5.8-5.2,18.8-3,30.1c1.2,6.2,5.8,12.1,15.8,10.1
				c16.3-3.2,20-28.3,22.6-35.7C113.4,11.4,107.8,8.7,106.5,12z"/>
		</g>
	</g>
</g>
<g>
	<g transform="translate(222.675309, 158.074436)">
		<g>
			<path class="st4" d="M85.9-17.5c6.3-1.2,10.8-4.6,10.1-12.2c-0.8-7.6-6.3-9-12.4-7.8c-6.7,1.3-11.6,4.9-10,13.5
				C74.8-17.7,80.1-16.4,85.9-17.5z M85.1,50.6c15.6-3,18.8-28.3,21.4-35.5c0.8-2.4-4.6-5.1-6-1.9c-1.7,4.1-3.6,7-7.2,7.7
				c-3.3,0.6-5.8-1-6.6-5c-1.3-6.5,2.6-15.6,1.2-23c-0.8-3.9-2.6-5.1-5.2-4.7c-6.9,1.3-10,12.1-12.1,30.7
				c-0.7,6.2-0.6,12.9,0.5,18.6C72.7,46.1,77,52.2,85.1,50.6z"/>
		</g>
	</g>
</g>
<g>
	<g transform="translate(106.516301, 263.380534)">
		<g>
			<path class="st3" d="M64,87.6c17.8-3.4,28-18.9,24.5-36.9c-3-15.3-20.4-22.9-22.1-33.8c-1.2-6.1,1.9-9.2,5.9-9.9
				c6.9-1.3,7.8,7.4,6.1,10.8c-1.3,2.5,4.8,5.5,5.9,3.1c5.9-4.7,8.8-12.3,7.4-19.5C90-7.4,82.9-14.8,68.7-12.1
				C52.6-9,47.4,3.1,49.5,14.2c2.8,14.7,16.8,21.3,18.6,30.6c1.1,5.9-2.2,10.8-8,12c-6.3,1.2-10.8-2.2-12.1-8.7
				c-1.3-6.7,2.9-7.7,2.4-10.5c-0.4-1.8-2.5-2.7-5.6-2.1c-7.1,1.4-18,10-14.4,29C34.1,83.2,48.1,90.6,64,87.6z"/>
		</g>
	</g>
</g>
<g>
	<g transform="translate(153.569896, 254.282257)">
		<g>
			<path class="st3" d="M105.2,39.9c-2.1,4.8-5,7.1-8.5,7.8l-0.8,0.2c0.4-4.2,0.2-8.6-0.6-12.8c-3-15.3-11.8-19.3-21.7-17.4
				c-19.3,3.7-29,28.5-25.5,46.7C50.4,76.9,59.8,83.1,70.7,81c9.1-1.8,16.7-8.8,21.1-18.2l1.5-0.3c11.8-2.3,15.9-12.6,18-20.7
				C112,38.8,106.3,37.5,105.2,39.9z M72.7,54.6c-4.6,0.9-6.9-1.8-7.6-5.3c-1-5.3,1.8-12,7.8-13.2c4.7-0.9,7.2,1.6,7.9,5.1
				C81.8,46.3,78.8,53.4,72.7,54.6z"/>
		</g>
	</g>
</g>
<g>
	<g transform="translate(196.808339, 245.921678)">
		<g>
			<path class="st3" d="M121.1,36.8c-2.1,4.8-5,7.1-8.5,7.8c0.5-5,0.4-10.1-0.6-15.3c-2.2-11.4-9.9-17.2-19.4-15.3
				c-3.8,0.7-7.5,2.2-10.9,7.1c-1.6,2.3-4,1.9-4,0c-0.1-2.2-1.4-4-5.6-3.2c-6.2,1.2-6.6,5.7-10,30.3c-0.8,5.2-1.6,10.1-2.3,14.6
				c-3.1,17.1-6.3,30.2-4.9,37.6c1,5.3,4,7.9,10.1,6.7c8.6-1.7,8-22.4,8.2-40.8c0-3.1,3.3-3.5,3.4-0.7c0.3,10,6.4,12.8,13.3,11.5
				c7.8-1.5,14.6-8.3,18.7-17.7l0.7-0.1c11.8-2.3,15.9-12.6,18-20.7C127.9,35.7,122.1,34.5,121.1,36.8z M87.2,51.8
				c-4.6,0.9-6.9-1.8-7.6-5.3c-1-5.3,1.8-12,7.8-13.2c4.7-0.9,7.2,1.6,7.9,5.1C96.2,43.5,93.2,50.6,87.2,51.8z"/>
		</g>
	</g>
</g>
<g>
	<g transform="translate(241.136818, 237.35033)">
		<g>
			<path class="st3" d="M88.6,77.5c8-1.5,8.3-8.5,7.1-14.7l-1.1-5.4c-2.1-10.8,2-22,9.1-23.4c2.8-0.5,4.9,0.6,5.4,3.3
				c1,5-3.2,14.2-1.4,23.4c1.3,6.8,5.1,12.1,13.1,10.5c16.3-3.2,20-28.3,22.6-35.7c0.9-2.6-4.7-5.3-6-2c-1.7,4.1-3.5,7.1-7.2,7.8
				c-3.9,0.8-5.9-0.9-6.7-5c-1.2-6.1,2-10.7,0.7-17.1c-1.2-6.1-5.7-10.5-13.1-9c-5.3,1-9.7,4.5-13.3,9.7c-2.2,3.2-4.2,3.1-3.8-2.2
				c0.4-6,3.3-13.3,5.1-21c2-8.4-0.1-11.8-5.1-10.8C84.3-12,82.3,7.6,76.9,45.4c-1.1,7.4-1.3,15.3-0.1,21.5
				C78.1,74,81.6,78.9,88.6,77.5z"/>
		</g>
	</g>
</g>
<g>
	<g transform="translate(101.72538, 260.142159)">
		<g>
			<path class="st4" d="M62.4,86.5c17.8-3.4,28-18.9,24.5-36.9c-3-15.3-20.4-22.9-22.1-33.8c-1.2-6.1,1.9-9.2,5.9-9.9
				c6.9-1.3,7.8,7.4,6.1,10.8c-1.3,2.5,4.8,5.5,5.9,3.1c5.9-4.7,8.8-12.3,7.4-19.5c-1.7-8.7-8.8-16.1-22.9-13.4
				C51-10.1,45.8,2,48,13.1c2.8,14.7,16.8,21.2,18.6,30.6c1.1,5.9-2.2,10.8-8,12c-6.3,1.2-10.8-2.2-12.1-8.7
				c-1.3-6.7,2.9-7.7,2.4-10.5c-0.4-1.8-2.5-2.7-5.6-2.1c-7.1,1.4-18,10-14.4,29C32.5,82.1,46.5,89.6,62.4,86.5z"/>
		</g>
	</g>
</g>
<g>
	<g transform="translate(148.778975, 251.043882)">
		<g>
			<path class="st4" d="M103.6,38.8c-2.1,4.8-5,7.1-8.5,7.8l-0.8,0.2c0.4-4.2,0.2-8.6-0.6-12.8c-3-15.3-11.8-19.3-21.7-17.4
				c-19.3,3.7-29,28.5-25.5,46.7C48.8,75.8,58.2,82,69.1,79.9c9.1-1.8,16.7-8.8,21.1-18.2l1.5-0.3c11.8-2.3,15.9-12.6,18-20.7
				C110.4,37.7,104.7,36.5,103.6,38.8z M71.2,53.5c-4.6,0.9-6.9-1.8-7.6-5.3c-1-5.3,1.8-12,7.8-13.2c4.7-0.9,7.2,1.6,7.9,5.1
				C80.2,45.2,77.2,52.3,71.2,53.5z"/>
		</g>
	</g>
</g>
<g>
	<g transform="translate(192.017418, 242.683303)">
		<g>
			<path class="st4" d="M119.5,35.7c-2.1,4.8-5,7.1-8.5,7.8c0.5-5,0.4-10.1-0.6-15.3c-2.2-11.4-9.9-17.2-19.4-15.3
				c-3.8,0.7-7.5,2.2-10.9,7.1c-1.6,2.3-4,1.9-4,0c-0.1-2.2-1.4-4-5.6-3.2c-6.2,1.2-6.6,5.7-10,30.3c-0.8,5.2-1.6,10.1-2.3,14.6
				c-3.1,17.1-6.3,30.3-4.9,37.6c1,5.3,4,7.9,10.1,6.7c8.6-1.7,8-22.4,8.2-40.8c0-3.1,3.3-3.5,3.4-0.7c0.3,10,6.4,12.8,13.3,11.5
				c7.8-1.5,14.6-8.3,18.7-17.7l0.7-0.1c11.8-2.3,15.9-12.6,18-20.7C126.3,34.7,120.5,33.4,119.5,35.7z M85.6,50.7
				c-4.6,0.9-6.9-1.8-7.6-5.3c-1-5.3,1.8-12,7.8-13.2c4.7-0.9,7.2,1.6,7.9,5.1C94.6,42.4,91.6,49.5,85.6,50.7z"/>
		</g>
	</g>
</g>
<g>
	<g transform="translate(236.345896, 234.111955)">
		<g>
			<path class="st4" d="M87,76.4c8-1.5,8.3-8.5,7.1-14.7L93,56.3c-2.1-10.8,2-22,9.1-23.4c2.8-0.5,4.9,0.6,5.4,3.3
				c1,5-3.2,14.2-1.4,23.4c1.3,6.8,5.1,12.1,13.1,10.5c16.3-3.2,20-28.2,22.6-35.7c0.9-2.6-4.7-5.3-6-2c-1.7,4.1-3.5,7.1-7.2,7.8
				c-3.9,0.8-5.9-0.9-6.7-5c-1.2-6.1,2-10.7,0.7-17.1c-1.2-6.1-5.7-10.5-13.1-9c-5.3,1-9.7,4.5-13.3,9.7c-2.2,3.2-4.2,3.1-3.8-2.2
				c0.4-6,3.3-13.3,5.1-21c2-8.4-0.1-11.8-5.1-10.8c-9.8,1.9-11.8,21.5-17.2,59.2c-1.1,7.4-1.3,15.3-0.1,21.5
				C76.5,72.9,80,77.8,87,76.4z"/>
		</g>
	</g>
</g>
<g>
	<defs>
		<rect id="SVGID_00000136381248191441987000000004786617302397275020_" x="159.7" y="351" width="65" height="65"/>
	</defs>
	<clipPath id="SVGID_00000003803058341265748820000017604115920540282265_">
		<use xlink:href="#SVGID_00000136381248191441987000000004786617302397275020_"  style="overflow:visible;"/>
	</clipPath>
	<g style="clip-path:url(#SVGID_00000003803058341265748820000017604115920540282265_);">
		<path class="st6" d="M192.2,351c0,17.9-14.6,32.5-32.5,32.5c18,0,32.5,14.5,32.5,32.5c0-18,14.6-32.5,32.5-32.5
			C206.8,383.5,192.2,368.9,192.2,351z"/>
	</g>
</g>
<g>
	<defs>
		<rect id="SVGID_00000004532384692148922880000010210620374594811581_" x="208.8" y="351" width="33" height="33"/>
	</defs>
	<clipPath id="SVGID_00000029728054696574455110000017064012439583427997_">
		<use xlink:href="#SVGID_00000004532384692148922880000010210620374594811581_"  style="overflow:visible;"/>
	</clipPath>
	<g style="clip-path:url(#SVGID_00000029728054696574455110000017064012439583427997_);">
		<path class="st6" d="M225.3,351c0,9.1-7.4,16.5-16.5,16.5c9.1,0,16.5,7.4,16.5,16.5c0-9.1,7.4-16.5,16.5-16.5
			C232.7,367.5,225.3,360.1,225.3,351z"/>
	</g>
</g>
</svg>
